<mxfile host="app.diagrams.net" modified="2021-12-21T06:43:13.421Z" agent="5.0 (Windows)" etag="SvAshYnDgMAwclJkii83" version="15.9.6" type="github">
  <diagram id="xiFE5NegVB7DU-z1QMmQ" name="Page-1">
    <mxGraphModel dx="1038" dy="536" grid="1" gridSize="10" guides="1" tooltips="1" connect="1" arrows="1" fold="1" page="1" pageScale="1" pageWidth="850" pageHeight="1100" math="0" shadow="0">
      <root>
        <mxCell id="0" />
        <mxCell id="1" parent="0" />
        <mxCell id="9SSuk8lpaZ3rHtq111QB-6" style="edgeStyle=orthogonalEdgeStyle;rounded=0;orthogonalLoop=1;jettySize=auto;html=1;" parent="1" source="9SSuk8lpaZ3rHtq111QB-4" edge="1">
          <mxGeometry relative="1" as="geometry">
            <mxPoint x="450" y="275" as="targetPoint" />
            <mxPoint x="320" y="275" as="sourcePoint" />
          </mxGeometry>
        </mxCell>
        <mxCell id="9SSuk8lpaZ3rHtq111QB-4" value="" style="shape=waypoint;sketch=0;fillStyle=solid;size=6;pointerEvents=1;points=[];fillColor=none;resizable=0;rotatable=0;perimeter=centerPerimeter;snapToPoint=1;strokeWidth=8;" parent="1" vertex="1">
          <mxGeometry x="250" y="255" width="40" height="40" as="geometry" />
        </mxCell>
        <mxCell id="9SSuk8lpaZ3rHtq111QB-9" style="edgeStyle=orthogonalEdgeStyle;rounded=0;orthogonalLoop=1;jettySize=auto;html=1;" parent="1" source="9SSuk8lpaZ3rHtq111QB-7" edge="1">
          <mxGeometry relative="1" as="geometry">
            <mxPoint x="720" y="275" as="targetPoint" />
          </mxGeometry>
        </mxCell>
        <mxCell id="9SSuk8lpaZ3rHtq111QB-7" value="Ready to enter Personal Information" style="rounded=1;whiteSpace=wrap;html=1;" parent="1" vertex="1">
          <mxGeometry x="450" y="245" width="120" height="60" as="geometry" />
        </mxCell>
        <mxCell id="9SSuk8lpaZ3rHtq111QB-8" value="clickSignUp()" style="text;html=1;strokeColor=none;fillColor=none;align=center;verticalAlign=middle;whiteSpace=wrap;rounded=0;" parent="1" vertex="1">
          <mxGeometry x="290" y="245" width="140" height="30" as="geometry" />
        </mxCell>
        <mxCell id="9SSuk8lpaZ3rHtq111QB-10" value="onCreateAccountClick()" style="text;html=1;strokeColor=none;fillColor=none;align=center;verticalAlign=middle;whiteSpace=wrap;rounded=0;" parent="1" vertex="1">
          <mxGeometry x="560" y="240" width="160" height="40" as="geometry" />
        </mxCell>
        <mxCell id="8DpSw2vg_aMXSfLuJfFo-2" style="edgeStyle=orthogonalEdgeStyle;rounded=0;orthogonalLoop=1;jettySize=auto;html=1;exitX=1;exitY=0.5;exitDx=0;exitDy=0;entryX=0;entryY=0.5;entryDx=0;entryDy=0;" edge="1" parent="1" source="9SSuk8lpaZ3rHtq111QB-13" target="8DpSw2vg_aMXSfLuJfFo-1">
          <mxGeometry relative="1" as="geometry" />
        </mxCell>
        <mxCell id="9SSuk8lpaZ3rHtq111QB-13" value="Create New Account" style="rounded=1;whiteSpace=wrap;html=1;" parent="1" vertex="1">
          <mxGeometry x="720" y="245" width="120" height="60" as="geometry" />
        </mxCell>
        <mxCell id="8DpSw2vg_aMXSfLuJfFo-1" value="" style="ellipse;html=1;shape=endState;fillColor=#000000;strokeColor=#ff0000;" vertex="1" parent="1">
          <mxGeometry x="880" y="260" width="30" height="30" as="geometry" />
        </mxCell>
      </root>
    </mxGraphModel>
  </diagram>
</mxfile>
